{"title":"Deadpool (2016) HDRip x264 AAC [Dual Audio] [Hindi 2.0 + English","uid":14368035,"size":361683419,"categoryP":"video","categoryS":"movies","magnet":"?xt=urn:btih:8214fa63d12fda89a26367fa15a81df3cb80f673&amp;dn=Deadpool+%282016%29+HDRip+x264+AAC+%5BDual+Audio%5D+%5BHindi+2.0+%2B+English&amp;tr=udp%3A%2F%2Ftracker.leechers-paradise.org%3A6969&amp;tr=udp%3A%2F%2Fzer0day.ch%3A1337&amp;tr=udp%3A%2F%2Fopen.demonii.com%3A1337&amp;tr=udp%3A%2F%2Ftracker.coppersurfer.tk%3A6969&amp;tr=udp%3A%2F%2Fexodus.desync.com%3A6969","seeders":0,"leechers":1,"uploader":"hmuality","files":1,"time":1461134774,"description":"[center][size=2][color=red]Deadpool (2016) HDRip x264 AAC [Dual Audio] [Hindi 2.0 + English 2.0] ''hmuality''.mkv\r\n[/color][/size][url=http://extraimago.com/image/aLkZ][img]http://extraimago.com/images/2016/04/19/Deadpool-2012-new-poster-3.jpg[/img][/url][/center]\r\n\r\n\r\n\r\n\r\n\r\n[justify]General\r\nUnique ID : 221358472892465067775611322772614496077 (0xA6881754DE6006CA8AF2C80775673F4D)\r\nComplete name : D:Deadpool (2016) HDRip x264 AAC [Dual Audio] [Hindi 2.0 + English 2.0] ''hmuality''.mkv\r\nFormat : Matroska\r\nFormat version : Version 2\r\nFile size : 345 MiB\r\nDuration : 1h 47mn\r\nOverall bit rate : 447 Kbps\r\nEncoded date : UTC 2016-04-19 08:16:03\r\nWriting application : mkvmerge v8.5.2 ('Crosses') 32bit\r\nWriting library : libebml v1.3.3 + libmatroska v1.4.4\r\n\r\nVideo\r\nID : 1\r\nFormat : AVC\r\nFormat/Info : Advanced Video Codec\r\nFormat profile :   \r\nFormat settings, CABAC : Yes\r\nFormat settings, ReFrames : 4 frames\r\nFormat settings, GOP : M=1, N=3\r\nCodec ID : V_MPEG4/ISO/AVC\r\nDuration : 1h 47mn\r\nBit rate : 317 Kbps\r\nWidth : 720 pixels\r\nHeight : 408 pixels\r\nDisplay aspect ratio : 16:9\r\nFrame rate mode : Constant\r\nFrame rate : 23.976 (24000/1001) fps\r\nColor space : YUV\r\nChroma subsampling : 4:2:0\r\nBit depth : 8 bits\r\nScan type : Progressive\r\nBits/(Pixel*Frame) : 0.045\r\nStream size : 244 MiB (71%)\r\nWriting library : x264 core 148 r2638 7599210\r\nEncoding settings : cabac=1 / ref=1 / deblock=1:-2:-1 / analyse=0x3:0x113 / me=hex / subme=4 / psy=1 / psy_rd=1.00:0.00 / mixed_ref=0 / me_range=8 / chroma_me=1 / trellis=0 / 8x8dct=1 / cqm=0 / deadzone=21,11 / fast_pskip=1 / chroma_qp_offset=0 / threads=3 / lookahead_threads=1 / sliced_threads=0 / nr=0 / decimate=1 / interlaced=0 / bluray_compat=0 / constrained_intra=0 / bframes=16 / b_pyramid=2 / b_adapt=1 / b_bias=0 / direct=3 / weightb=1 / open_gop=0 / weightp=2 / keyint=240 / keyint_min=23 / scenecut=40 / intra_refresh=0 / rc_lookahead=40 / rc=2pass / mbtree=1 / bitrate=317 / ratetol=1.0 / qcomp=0.60 / qpmin=10 / qpmax=51 / qpstep=4 / cplxblur=20.0 / qblur=0.5 / ip_ratio=1.40 / aq=2:1.00\r\nDefault : Yes\r\nForced : No\r\n\r\nAudio #1\r\nID : 2\r\nFormat : AAC\r\nFormat/Info : Advanced Audio Codec\r\nFormat profile : HE-AAC / LC\r\nCodec ID : A_AAC\r\nDuration : 1h 47mn\r\nBit rate : 64.0 Kbps\r\nChannel(s) : 2 channels\r\nChannel positions : Front: L R\r\nSampling rate : 48.0 KHz / 24.0 KHz\r\nFrame rate : 23.438 fps (1024 spf)\r\nCompression mode : Lossy\r\nDelay relative to video : 31ms\r\nStream size : 49.3 MiB (14%)\r\nLanguage : English\r\nDefault : Yes\r\nForced : No\r\n\r\nAudio #2\r\nID : 3\r\nFormat : AAC\r\nFormat/Info : Advanced Audio Codec\r\nFormat profile : LC\r\nCodec ID : A_AAC\r\nDuration : 1h 47mn\r\nBit rate : 64.0 Kbps\r\nChannel(s) : 2 channels\r\nChannel positions : Front: L R\r\nSampling rate : 44.1 KHz\r\nFrame rate : 43.066 fps (1024 spf)\r\nCompression mode : Lossy\r\nDelay relative to video : 10ms\r\nStream size : 49.3 MiB (14%)\r\nLanguage : Hindi\r\nDefault : No\r\nForced : No\r\n[/justify]\r\n\r\n\r\n\r\n[center][size=2][color=red]SCREE[/color][color=black]NSHOTS[/color] \r\nClick On Image [/size][/center]\r\n[url=http://extraimago.com/image/aLke][img]http://extraimago.com/images/2016/04/19/vlcsnap-2016-04-19-04h35m43s348.png[/img][/url]\r\n[url=http://extraimago.com/image/aLk4][img]http://extraimago.com/images/2016/04/19/vlcsnap-2016-04-19-04h35m53s565.png[/img][/url]\r\n[url=http://extraimago.com/image/aLkB][img]http://extraimago.com/images/2016/04/19/vlcsnap-2016-04-19-04h35m55s855.png[/img][/url]\r\n[url=http://extraimago.com/image/aLkC][img]http://extraimago.com/images/2016/04/19/vlcsnap-2016-04-19-04h36m03s739.png[/img][/url]\r\n[url=http://extraimago.com/image/aLkY][img]http://extraimago.com/images/2016/04/19/vlcsnap-2016-04-19-04h36m29s657.png[/img][/url]\r\n[url=http://extraimago.com/image/aLkp][img]http://extraimago.com/images/2016/04/19/vlcsnap-2016-04-19-04h36m22s279.png[/img][/url]\r\n[url=http://extraimago.com/image/aLkr][img]http://extraimago.com/images/2016/04/19/vlcsnap-2016-04-19-04h36m27s914.png[/img][/url]\r\n[url=http://extraimago.com/image/aLkG][img]http://extraimago.com/images/2016/04/19/vlcsnap-2016-04-19-04h36m11s946.png[/img][/url]\r\n[url=http://extraimago.com/image/aLkP][img]http://extraimago.com/images/2016/04/19/vlcsnap-2016-04-19-04h36m08s818.png[/img][/url]\r\n[url=http://extraimago.com/image/aLkX][img]http://extraimago.com/images/2016/04/19/vlcsnap-2016-04-19-04h36m32s517.png[/img][/url]\r\n[url=http://extraimago.com/image/aLkg][img]http://extraimago.com/images/2016/04/19/vlcsnap-2016-04-19-04h36m43s822.png[/img][/url]\r\n[url=http://extraimago.com/image/aLk5][img]http://extraimago.com/images/2016/04/19/vlcsnap-2016-04-19-04h36m13s841.png[/img][/url]\r\n[url=http://extraimago.com/image/aLkD][img]http://extraimago.com/images/2016/04/19/vlcsnap-2016-04-19-04h37m00s887.png[/img][/url]\r\n[url=http://extraimago.com/image/aLkF][img]http://extraimago.com/images/2016/04/19/vlcsnap-2016-04-19-04h37m19s611.png[/img][/url]","torrent":{"xt":"urn:btih:8214fa63d12fda89a26367fa15a81df3cb80f673","amp;dn":"Deadpool+%282016%29+HDRip+x264+AAC+%5BDual+Audio%5D+%5BHindi+2.0+%2B+English","amp;tr":["udp%3A%2F%2Ftracker.leechers-paradise.org%3A6969","udp%3A%2F%2Fzer0day.ch%3A1337","udp%3A%2F%2Fopen.demonii.com%3A1337","udp%3A%2F%2Ftracker.coppersurfer.tk%3A6969","udp%3A%2F%2Fexodus.desync.com%3A6969"],"infoHash":"8214fa63d12fda89a26367fa15a81df3cb80f673","infoHashBuffer":{"type":"Buffer","data":[130,20,250,99,209,47,218,137,162,99,103,250,21,168,29,243,203,128,246,115]},"announce":[],"urlList":[]}}